REM DIRINDEX 1\2\4,1\2\5,1\3\6,1\3\7,1\3\8
REM DIRNAME cjc094,folder01,folder02,folder03,folder04,folder05,folder06,folder07
TITLE ""
FILE "LV2_040_WORDS.mp3" MP3
  TRACK 01 AUDIO
    TITLE "0:"
    INDEX 01 00:00:00
  TRACK 02 AUDIO
    TITLE "6:cjc094_1484"
    INDEX 01 00:00:01
  TRACK 03 AUDIO
    TITLE "0:"
    INDEX 01 00:01:71
  TRACK 04 AUDIO
    TITLE "7:cjc094_1485"
    INDEX 01 00:02:49
  TRACK 05 AUDIO
    TITLE "0:"
    INDEX 01 00:03:53
  TRACK 06 AUDIO
    TITLE "8:cjc094_1486"
    INDEX 01 00:03:63
  TRACK 07 AUDIO
    TITLE "0:"
    INDEX 01 00:05:52
  TRACK 08 AUDIO
    TITLE "7:cjc094_1487"
    INDEX 01 00:06:26
  TRACK 09 AUDIO
    TITLE "0:"
    INDEX 01 00:07:25
  TRACK 10 AUDIO
    TITLE "8:cjc094_1488"
    INDEX 01 00:07:35
  TRACK 11 AUDIO
    TITLE "0:"
    INDEX 01 00:08:42
  TRACK 12 AUDIO
    TITLE "7:cjc094_1489"
    INDEX 01 00:09:14
  TRACK 13 AUDIO
    TITLE "0:"
    INDEX 01 00:10:10
  TRACK 14 AUDIO
    TITLE "8:cjc094_1490"
    INDEX 01 00:10:23
  TRACK 15 AUDIO
    TITLE "0:"
    INDEX 01 00:13:37
  TRACK 16 AUDIO
    TITLE "7:cjc094_1491"
    INDEX 01 00:14:11
  TRACK 17 AUDIO
    TITLE "0:"
    INDEX 01 00:15:15
  TRACK 18 AUDIO
    TITLE "8:cjc094_1492"
    INDEX 01 00:15:27
  TRACK 19 AUDIO
    TITLE "0:"
    INDEX 01 00:17:43
  TRACK 20 AUDIO
    TITLE "7:cjc094_1493"
    INDEX 01 00:18:11
  TRACK 21 AUDIO
    TITLE "0:"
    INDEX 01 00:19:11
  TRACK 22 AUDIO
    TITLE "8:cjc094_1494"
    INDEX 01 00:19:26
  TRACK 23 AUDIO
    TITLE "0:"
    INDEX 01 00:20:47
  TRACK 24 AUDIO
    TITLE "7:cjc094_1495"
    INDEX 01 00:21:15
  TRACK 25 AUDIO
    TITLE "0:"
    INDEX 01 00:22:15
  TRACK 26 AUDIO
    TITLE "8:cjc094_1496"
    INDEX 01 00:22:29
  TRACK 27 AUDIO
    TITLE "0:"
    INDEX 01 00:23:46
  TRACK 28 AUDIO
    TITLE "7:cjc094_1497"
    INDEX 01 00:24:18
  TRACK 29 AUDIO
    TITLE "0:"
    INDEX 01 00:25:19
  TRACK 30 AUDIO
    TITLE "8:cjc094_1498"
    INDEX 01 00:25:33
  TRACK 31 AUDIO
    TITLE "0:"
    INDEX 01 00:27:65
  TRACK 32 AUDIO
    TITLE "7:cjc094_1499"
    INDEX 01 00:28:37
  TRACK 33 AUDIO
    TITLE "0:"
    INDEX 01 00:29:42
  TRACK 34 AUDIO
    TITLE "8:cjc094_1500"
    INDEX 01 00:29:56
  TRACK 35 AUDIO
    TITLE "0:"
    INDEX 01 00:30:59
  TRACK 36 AUDIO
    TITLE "7:cjc094_1501"
    INDEX 01 00:31:35
  TRACK 37 AUDIO
    TITLE "0:"
    INDEX 01 00:32:48
  TRACK 38 AUDIO
    TITLE "8:cjc094_1502"
    INDEX 01 00:32:62
  TRACK 39 AUDIO
    TITLE "0:"
    INDEX 01 00:34:34
  TRACK 40 AUDIO
    TITLE "7:cjc094_1503"
    INDEX 01 00:35:10
  TRACK 41 AUDIO
    TITLE "0:"
    INDEX 01 00:36:17
  TRACK 42 AUDIO
    TITLE "8:cjc094_1504"
    INDEX 01 00:36:31
  TRACK 43 AUDIO
    TITLE "0:"
    INDEX 01 00:37:48
  TRACK 44 AUDIO
    TITLE "7:cjc094_1505"
    INDEX 01 00:38:30
  TRACK 45 AUDIO
    TITLE "0:"
    INDEX 01 00:39:37
  TRACK 46 AUDIO
    TITLE "8:cjc094_1506"
    INDEX 01 00:39:54
  TRACK 47 AUDIO
    TITLE "0:"
    INDEX 01 00:41:24
  TRACK 48 AUDIO
    TITLE "7:cjc094_1507"
    INDEX 01 00:41:67
  TRACK 49 AUDIO
    TITLE "0:"
    INDEX 01 00:44:09
  TRACK 50 AUDIO
    TITLE "8:cjc094_1508"
    INDEX 01 00:44:28
  TRACK 51 AUDIO
    TITLE "0:"
    INDEX 01 00:46:27
  TRACK 52 AUDIO
    TITLE "7:cjc094_1509"
    INDEX 01 00:47:01
  TRACK 53 AUDIO
    TITLE "0:"
    INDEX 01 00:48:10
  TRACK 54 AUDIO
    TITLE "8:cjc094_1510"
    INDEX 01 00:48:18
  TRACK 55 AUDIO
    TITLE "0:"
    INDEX 01 00:50:31
  TRACK 56 AUDIO
    TITLE "7:cjc094_1511"
    INDEX 01 00:51:03
  TRACK 57 AUDIO
    TITLE "0:"
    INDEX 01 00:52:16
  TRACK 58 AUDIO
    TITLE "8:cjc094_1512"
    INDEX 01 00:52:32
  TRACK 59 AUDIO
    TITLE "0:"
    INDEX 01 00:54:07
